<?xml version="1.0" encoding="utf-8"?>
<!-- Generator: Adobe Illustrator 22.1.0, SVG Export Plug-In . SVG Version: 6.00 Build 0)  -->
<svg version="1.1" baseProfile="tiny" id="Layer_1" xmlns="http://www.w3.org/2000/svg" xmlns:xlink="http://www.w3.org/1999/xlink"
	 x="0px" y="0px" width="88mm" height="50mm" viewBox="0 0 249.4 141.7" xml:space="preserve">
<g id="board">
	<path fill="#231F20" d="M223.9,62.1h0.4c0,0,25.1,0.5,25.1-28.7c0-14.8-3.6-33.4-18.2-33.4H198l-6.3,9.5l-4.6,9.1
		c-2.6,5.1-2,3.9-4.3,9.9c-2.9,7.4-4.3,12-6,18.6l-1.9,9.3l-1,5.7h0.6h10.8v8.7h-2h-39.6v-8.5h7.2V0H80.1v62.2h8.1v8.5H62.7v-8.5
		h8.1V0H0v62.2h7.2v8.5H0v21c0.2,0,0.4,0,0.6,0h2.5h11.2c4.7,0,8.5,3.8,8.5,8.5v5.6c0,4.7-3.8,8.5-8.5,8.5H3.1v0.2H0v3v1.4v22.7
		h53.6h37.3v-5.7h5.7v5.7h152.8V70.7h-25.5V62.1z M237.6,28.3c2.5,0,4.5,2,4.5,4.5s-2,4.5-4.5,4.5c-2.5,0-4.5-2-4.5-4.5
		S235.1,28.3,237.6,28.3z M54.5,70.7h-28H16.1v-8.5h13.2H35h19.5V70.7z M134.8,70.7h-19v5.7h-5.7v-5.7H96.4v-8.5h19.5h5.7h13.2V70.7
		z M215.7,70.7h-18.3h-3.9V62h8v0l14.1,0.1v8.6H215.7z"/>
</g>
<g id="silkscreen">
	<g>
		<path fill="#FFFFFF" d="M142.1,109h-5v-1.4h5V109z M144.9,104.5c0-1.8-1.7-1.7-1.7-1.7h-8.3v1.9h7.1v0.9h-6.1
			c-1.2,0-1.8,1.2-1.8,2.5c0,1.3,0.4,2.8,1.6,2.8h9.1C144.9,110.9,144.9,106.2,144.9,104.5"/>
		<path fill="#FFFFFF" d="M125.2,105.6v-0.9h7.1v-1.9H124c0,0-1.7-0.1-1.7,1.7c0,0.7,0,1.9,0,3.1h2.8h0.1h4.9v1.4h-4.9h-0.1h-2.8
			c0,1.1,0,1.9,0,1.9h9.1c1.2,0,1.6-1.4,1.6-2.8c0-1.3-0.6-2.5-1.8-2.5C131.2,105.6,125.2,105.6,125.2,105.6z"/>
		<path fill="#FFFFFF" d="M146.3,110.9v-8.1h13c0,0,1.6,0.2,1.6,1.9v6.2h-2.8V105h-3.2v5.9h-2.7V105h-3.3v5.9
			C148.9,110.9,146.3,110.9,146.3,110.9z"/>
		<path fill="#FFFFFF" d="M172.2,102.8h-7.6c0,0-2.4-0.3-2.4,1.8v4.9c0,0,0.2,1.5,1.9,1.5h8.1v-2.1H165v-4h7.2V102.8z"/>
		<path fill="#FFFFFF" d="M182.2,109.3h-6.1v-4.7h6.1V109.3z M184.8,109.2v-4.9c0,0-0.1-1.8-2.2-1.8H176c0,0-2.5-0.3-2.5,2v5
			c0,0,0,1.6,2.6,1.6h6.8C182.8,111.2,184.8,111.2,184.8,109.2"/>
	</g>
	<path fill="none" stroke="#FFFFFF" stroke-width="0.5669" stroke-miterlimit="10" d="M200.6,132h-94.8c-1.6,0-2.8-1.3-2.8-2.8V84.6
		c0-1.6,1.3-2.8,2.8-2.8h94.8c1.6,0,2.8,1.3,2.8,2.8v44.6C203.4,130.7,202.2,132,200.6,132z"/>
	<line fill="none" stroke="#FFFFFF" stroke-width="0.5669" stroke-miterlimit="10" x1="101.6" y1="98.3" x2="101.6" y2="114.8"/>
	<g>
		<path fill="#FFFFFF" d="M38.6,120.4c-0.2,0.1-0.3,0.1-0.5,0.1c-0.3,0-0.5,0-0.7-0.1c-0.2-0.1-0.4-0.2-0.6-0.4
			c-0.1-0.2-0.3-0.4-0.3-0.6s-0.1-0.5-0.1-0.7c0-0.3,0-0.5,0.1-0.7s0.2-0.4,0.3-0.6c0.2-0.2,0.3-0.3,0.6-0.4
			c0.3-0.1,0.5-0.1,0.7-0.1s0.4,0,0.5,0.1c0.2,0.1,0.3,0.1,0.5,0.2c0.1,0.1,0.3,0.2,0.3,0.4c0.1,0.2,0.1,0.3,0.2,0.5h-0.8
			c0-0.2-0.1-0.4-0.3-0.5c-0.1-0.2-0.2-0.2-0.4-0.2s-0.3,0-0.4,0.1c-0.1,0.1-0.2,0.2-0.3,0.3s-0.1,0.2-0.2,0.4
			c0,0.1-0.1,0.3-0.1,0.5c0,0.1,0,0.3,0.1,0.4c0,0.1,0.1,0.3,0.2,0.4c0.1,0.1,0.2,0.2,0.3,0.3c0.1,0.1,0.3,0.1,0.4,0.1
			c0.3,0,0.5-0.1,0.6-0.2c0.1-0.1,0.2-0.3,0.2-0.6h-0.8v-0.6h1.5v1.9h-0.5L39,120C38.9,120.2,38.8,120.3,38.6,120.4z"/>
	</g>
	<g>
		<path fill="#FFFFFF" d="M38.6,130.3c-0.2,0.1-0.4,0.1-0.5,0.1c-0.3,0-0.5,0-0.7-0.1c-0.2-0.1-0.4-0.2-0.6-0.4
			c-0.1-0.2-0.3-0.4-0.3-0.6c-0.1-0.2-0.1-0.5-0.1-0.7c0-0.3,0-0.5,0.1-0.7s0.2-0.4,0.3-0.6c0.2-0.2,0.3-0.3,0.6-0.4
			c0.3-0.1,0.5-0.1,0.7-0.1s0.4,0,0.5,0.1c0.2,0.1,0.3,0.1,0.5,0.2c0.2,0.1,0.3,0.2,0.3,0.4c0.1,0.2,0.1,0.3,0.2,0.5h-0.8
			c0-0.2-0.1-0.3-0.3-0.5c-0.1-0.1-0.3-0.1-0.5-0.1s-0.3,0-0.4,0.1c-0.1,0.1-0.2,0.2-0.3,0.3c-0.1,0.1-0.1,0.2-0.2,0.4
			c0,0.1-0.1,0.3-0.1,0.5c0,0.2,0,0.3,0.1,0.4c0,0.1,0.1,0.3,0.2,0.4c0.1,0.1,0.2,0.2,0.3,0.3s0.3,0.1,0.4,0.1
			c0.3,0,0.5-0.1,0.6-0.2c0.1-0.1,0.2-0.3,0.2-0.6H38v-0.7h1.5v1.9H39l-0.1-0.4C38.9,130.1,38.8,130.2,38.6,130.3z"/>
	</g>
	<g>
		<path fill="#FFFFFF" d="M241.1,110c-0.2,0.1-0.3,0.1-0.5,0.1c-0.3,0-0.5,0-0.7-0.1s-0.4-0.2-0.6-0.4c-0.1-0.2-0.3-0.4-0.3-0.6
			c-0.1-0.2-0.1-0.5-0.1-0.7c0-0.3,0-0.5,0.1-0.7c0.1-0.2,0.2-0.4,0.3-0.6c0.2-0.2,0.3-0.3,0.6-0.4c0.2-0.1,0.5-0.1,0.7-0.1
			s0.4,0,0.5,0.1c0.2,0.1,0.3,0.1,0.5,0.2c0.1,0.1,0.3,0.2,0.3,0.4s0.1,0.3,0.2,0.5h-0.8c0-0.2-0.1-0.4-0.3-0.5
			c-0.1-0.1-0.3-0.1-0.5-0.1c-0.2,0-0.3,0-0.5,0.1c-0.1,0.1-0.2,0.2-0.3,0.3c-0.1,0.1-0.1,0.2-0.2,0.4c0,0.1-0.1,0.3-0.1,0.5
			s0,0.3,0.1,0.4c0.1,0.1,0.1,0.3,0.2,0.4c0.1,0.1,0.2,0.2,0.3,0.3c0.1,0.1,0.3,0.1,0.5,0.1c0.3,0,0.5-0.1,0.6-0.2
			c0.1-0.1,0.2-0.3,0.2-0.6h-0.8v-0.6h1.5v1.9h-0.5l-0.1-0.4C241.4,109.8,241.2,109.9,241.1,110z"/>
	</g>
	<g>
		<path fill="#FFFFFF" d="M210.3,106.4c0.2,0,0.3,0,0.4,0.1c0.1,0.1,0.2,0.1,0.3,0.2c0.1,0.1,0.2,0.2,0.2,0.3s0.1,0.2,0.1,0.4
			s0,0.4-0.1,0.5c-0.1,0.2-0.2,0.3-0.4,0.3l0,0c0.1,0,0.2,0.1,0.2,0.1c0.1,0.1,0.1,0.1,0.2,0.2c0,0.1,0.1,0.2,0.1,0.2s0,0.2,0,0.3
			s0,0.1,0,0.2c0,0.1,0,0.2,0,0.2c0,0.1,0,0.2,0,0.2c0,0.1,0,0.1,0.1,0.2h-0.8c0-0.1-0.1-0.2-0.1-0.4c0-0.2,0-0.3,0-0.5
			s-0.1-0.3-0.2-0.4c-0.1-0.1-0.2-0.1-0.4-0.1h-0.8v1.4h-0.8v-3.6h2V106.4L210.3,106.4z M210,108.1c0.2,0,0.3,0,0.4-0.1
			c0.1-0.1,0.1-0.2,0.1-0.4c0-0.2,0-0.3-0.1-0.4c-0.1-0.1-0.2-0.1-0.4-0.1h-0.9v1H210z"/>
		<path fill="#FFFFFF" d="M212.8,106.4v3.6H212v-3.6H212.8z"/>
		<path fill="#FFFFFF" d="M215.6,110c-0.2,0.1-0.3,0.1-0.5,0.1c-0.3,0-0.5,0-0.7-0.1c-0.2-0.1-0.4-0.2-0.6-0.4
			c-0.1-0.2-0.3-0.4-0.3-0.6c-0.1-0.2-0.1-0.5-0.1-0.7c0-0.3,0-0.5,0.1-0.7c0.1-0.2,0.2-0.4,0.3-0.6c0.2-0.2,0.3-0.3,0.6-0.4
			c0.2-0.1,0.5-0.1,0.7-0.1c0.2,0,0.4,0,0.5,0.1c0.2,0.1,0.3,0.1,0.5,0.2c0.1,0.1,0.3,0.2,0.3,0.4c0.1,0.2,0.1,0.3,0.2,0.5h-0.8
			c0-0.2-0.1-0.4-0.3-0.5c-0.1-0.1-0.3-0.1-0.5-0.1c-0.2,0-0.3,0-0.4,0.1c-0.1,0.1-0.2,0.2-0.3,0.3c-0.1,0.1-0.1,0.2-0.2,0.4
			c0,0.1-0.1,0.3-0.1,0.5s0,0.3,0.1,0.4c0.1,0.1,0.1,0.3,0.2,0.4c0.1,0.1,0.2,0.2,0.3,0.3c0.1,0.1,0.3,0.1,0.4,0.1
			c0.3,0,0.5-0.1,0.6-0.2c0.1-0.1,0.2-0.3,0.2-0.6H215v-0.6h1.5v1.9H216l-0.1-0.4C215.9,109.8,215.8,109.9,215.6,110z"/>
		<path fill="#FFFFFF" d="M218.1,106.4v1.4h1.4v-1.4h0.8v3.6h-0.8v-1.5h-1.4v1.5h-0.8v-3.6H218.1z"/>
		<path fill="#FFFFFF" d="M220.7,107.1v-0.7h2.9v0.7h-1.1v2.9h-0.8v-2.9H220.7z"/>
	</g>
	<g>
		<path fill="#FFFFFF" d="M215.5,116.9l0.8,2.5l0,0l0.8-2.5h1.1v3.6h-0.7V118l0,0l-0.9,2.5H216l-0.9-2.5l0,0v2.5h-0.7v-3.6H215.5z"
			/>
		<path fill="#FFFFFF" d="M219.7,116.9v3.6h-0.8v-3.6H219.7z"/>
		<path fill="#FFFFFF" d="M222,116.9c0.2,0,0.4,0,0.6,0.1c0.2,0.1,0.4,0.2,0.5,0.3c0.1,0.1,0.3,0.3,0.3,0.5s0.1,0.5,0.1,0.8
			c0,0.3,0,0.5-0.1,0.7c-0.1,0.2-0.2,0.4-0.3,0.6c-0.1,0.2-0.3,0.3-0.5,0.4c-0.2,0.1-0.4,0.1-0.7,0.1h-1.5v-3.6L222,116.9L222,116.9
			z M221.9,119.9c0.1,0,0.2,0,0.3-0.1c0.1,0,0.2-0.1,0.3-0.2c0.1-0.1,0.2-0.2,0.2-0.3c0-0.1,0.1-0.3,0.1-0.5s0-0.3-0.1-0.5
			c0-0.1-0.1-0.3-0.2-0.4c-0.1-0.1-0.2-0.2-0.3-0.2c-0.1-0.1-0.3-0.1-0.5-0.1h-0.6v2.2L221.9,119.9L221.9,119.9z"/>
	</g>
	<g>
		<path fill="#FFFFFF" d="M241.1,120.5c-0.2,0.1-0.3,0.1-0.5,0.1c-0.3,0-0.5,0-0.7-0.1c-0.2-0.1-0.4-0.2-0.6-0.4
			c-0.1-0.2-0.3-0.4-0.3-0.6c-0.1-0.2-0.1-0.5-0.1-0.7c0-0.3,0-0.5,0.1-0.7c0.1-0.2,0.2-0.4,0.3-0.6c0.2-0.2,0.3-0.3,0.6-0.4
			c0.2-0.1,0.5-0.1,0.7-0.1s0.4,0,0.5,0.1c0.2,0.1,0.3,0.1,0.5,0.2c0.2,0.1,0.3,0.2,0.3,0.4c0.1,0.2,0.1,0.3,0.2,0.5h-0.8
			c0-0.2-0.1-0.3-0.3-0.5c-0.1-0.1-0.3-0.1-0.5-0.1c-0.2,0-0.3,0-0.5,0.1c-0.1,0.1-0.2,0.2-0.3,0.3c-0.1,0.1-0.1,0.2-0.2,0.4
			c0,0.1-0.1,0.3-0.1,0.5c0,0.2,0,0.3,0.1,0.4c0.1,0.1,0.1,0.3,0.2,0.4c0.1,0.1,0.2,0.2,0.3,0.3c0.1,0.1,0.3,0.1,0.5,0.1
			c0.3,0,0.5-0.1,0.6-0.2c0.1-0.1,0.2-0.3,0.2-0.6h-0.8v-0.6h1.5v1.8h-0.5l-0.1-0.4C241.4,120.3,241.2,120.4,241.1,120.5z"/>
	</g>
	<g>
		<path fill="#FFFFFF" d="M241.1,129.7c-0.2,0.1-0.3,0.1-0.5,0.1c-0.3,0-0.5,0-0.7-0.1c-0.2-0.1-0.4-0.2-0.6-0.4
			c-0.1-0.2-0.3-0.4-0.3-0.6c-0.1-0.2-0.1-0.5-0.1-0.7c0-0.3,0-0.5,0.1-0.7c0.1-0.2,0.2-0.4,0.3-0.6c0.2-0.2,0.3-0.3,0.6-0.4
			c0.2-0.1,0.5-0.1,0.7-0.1s0.4,0,0.5,0.1c0.2,0.1,0.3,0.1,0.5,0.2c0.2,0.1,0.3,0.2,0.3,0.4c0.1,0.2,0.1,0.3,0.2,0.5h-0.8
			c0-0.2-0.1-0.3-0.3-0.5c-0.1-0.1-0.3-0.1-0.5-0.1c-0.2,0-0.3,0-0.5,0.1c-0.1,0.1-0.2,0.2-0.3,0.3c-0.1,0.1-0.1,0.2-0.2,0.4
			c0,0.1-0.1,0.3-0.1,0.5c0,0.2,0,0.3,0.1,0.4c0.1,0.1,0.1,0.3,0.2,0.4c0.1,0.1,0.2,0.2,0.3,0.3c0.1,0.1,0.3,0.1,0.5,0.1
			c0.3,0,0.5-0.1,0.6-0.2c0.1-0.1,0.2-0.3,0.2-0.6h-0.8v-0.6h1.5v1.9h-0.5l-0.1-0.4C241.4,129.5,241.2,129.6,241.1,129.7z"/>
	</g>
	<g>
		<path fill="#FFFFFF" d="M55,116.8v2.9h1.7v0.7h-2.5v-3.6H55z"/>
		<path fill="#FFFFFF" d="M59.9,116.8v0.7H58v0.8h1.7v0.6H58v0.9h1.9v0.6h-2.7v-3.6H59.9z"/>
		<path fill="#FFFFFF" d="M62.9,116.8v0.7h-1.7v0.8h1.5v0.6h-1.5v1.5h-0.8v-3.6H62.9z"/>
		<path fill="#FFFFFF" d="M63.1,117.5v-0.7H66v0.7h-1.1v2.9h-0.8v-2.9H63.1z"/>
	</g>
	<g>
		<path fill="#FFFFFF" d="M56.5,127.7c0-0.1-0.1-0.1-0.2-0.2c-0.1-0.1-0.1-0.1-0.2-0.1c-0.1,0-0.2,0-0.3,0c-0.2,0-0.3,0-0.4,0.1
			c-0.1,0.1-0.2,0.2-0.3,0.3c-0.1,0.1-0.1,0.2-0.2,0.4c0,0.1-0.1,0.3-0.1,0.5c0,0.1,0,0.3,0.1,0.4c0,0.1,0.1,0.3,0.2,0.4
			c0.1,0.1,0.2,0.2,0.3,0.3s0.3,0.1,0.4,0.1c0.2,0,0.4-0.1,0.6-0.2c0.1-0.1,0.2-0.3,0.2-0.6h0.8c0,0.2-0.1,0.4-0.2,0.6
			c-0.1,0.2-0.2,0.3-0.3,0.5c-0.1,0.2-0.3,0.2-0.5,0.3c-0.2-0.1-0.4-0.1-0.6-0.1c-0.3,0-0.5,0-0.7-0.1c-0.2-0.1-0.4-0.2-0.6-0.4
			c-0.1-0.2-0.3-0.4-0.3-0.6c-0.1-0.2-0.1-0.5-0.1-0.7c0-0.3,0-0.5,0.1-0.7s0.2-0.4,0.3-0.6c0.2-0.2,0.3-0.3,0.6-0.4
			c0.3-0.1,0.5-0.1,0.7-0.1c0.2,0,0.4,0,0.6,0.1c0.2,0.1,0.3,0.1,0.5,0.2c0.1,0.1,0.3,0.2,0.3,0.4s0.1,0.3,0.2,0.5h-0.8
			C56.6,127.9,56.6,127.8,56.5,127.7z"/>
		<path fill="#FFFFFF" d="M59.7,126.7l1.3,3.6h-0.8l-0.3-0.8h-1.3l-0.3,0.8h-0.8l1.3-3.6C58.8,126.7,59.7,126.7,59.7,126.7z
			 M59.7,128.9l-0.4-1.3l0,0l-0.5,1.3H59.7z"/>
		<path fill="#FFFFFF" d="M62.1,126.7v2.9h1.7v0.7h-2.5v-3.6C61.3,126.7,62.1,126.7,62.1,126.7z"/>
		<path fill="#FFFFFF" d="M65.1,126.7v3.6h-0.8v-3.6C64.3,126.7,65.1,126.7,65.1,126.7z"/>
	</g>
	<g>
		<path fill="#FFFFFF" d="M213,127.5c-0.1,0.4-0.1,0.8-0.1,1.2s0,0.8,0.1,1.2s0.2,0.8,0.4,1.1h-0.6c-0.2-0.3-0.4-0.7-0.5-1.1
			c-0.1-0.4-0.2-0.8-0.2-1.2c0-0.2,0-0.4,0-0.6c0-0.2,0.1-0.4,0.1-0.6c0.1-0.2,0.1-0.4,0.2-0.6c0.1-0.2,0.2-0.4,0.3-0.5h0.6
			C213.2,126.7,213,127.1,213,127.5z"/>
		<path fill="#FFFFFF" d="M215.5,126.4l1.3,3.6H216l-0.3-0.8h-1.3l-0.3,0.8h-0.8l1.4-3.6H215.5z M215.5,128.6l-0.5-1.3l0,0l-0.5,1.3
			H215.5z"/>
		<path fill="#FFFFFF" d="M217.9,126.4v2.9h1.7v0.7h-2.5v-3.6C217.1,126.4,217.9,126.4,217.9,126.4z"/>
		<path fill="#FFFFFF" d="M219.3,127.1v-0.7h2.9v0.7h-1.1v2.9h-0.8v-2.9H219.3z"/>
		<path fill="#FFFFFF" d="M222.7,129.8c0.1-0.4,0.1-0.8,0.1-1.2c0-0.4,0-0.8-0.1-1.2c-0.1-0.4-0.2-0.8-0.4-1.1h0.6
			c0.2,0.3,0.4,0.7,0.5,1.1c0.1,0.4,0.2,0.8,0.2,1.2c0,0.2,0,0.4,0,0.6c0,0.2-0.1,0.4-0.1,0.6c-0.1,0.2-0.1,0.4-0.2,0.6
			c-0.1,0.2-0.2,0.4-0.3,0.5h-0.6C222.5,130.6,222.6,130.2,222.7,129.8z"/>
	</g>
	
		<line fill="none" stroke="#FFFFFF" stroke-width="0.5669" stroke-linecap="round" stroke-linejoin="round" stroke-miterlimit="10" x1="233.5" y1="83.5" x2="233.5" y2="87.1"/>
	
		<line fill="none" stroke="#FFFFFF" stroke-width="0.5669" stroke-linecap="round" stroke-linejoin="round" stroke-miterlimit="10" x1="235.3" y1="85.3" x2="231.7" y2="85.3"/>
	<g>
		<path fill="#FFFFFF" d="M25.5,52.7h-4.3v-1.2h4.3V52.7z M27.9,48.9c0-1.5-1.5-1.5-1.5-1.5h-7.1V49h6.1v0.8h-5.2
			c-1,0-1.5,1-1.5,2.2s0.3,2.4,1.4,2.4h7.7C27.9,54.4,27.9,50.3,27.9,48.9"/>
		<path fill="#FFFFFF" d="M10.9,49.8V49H17v-1.6H9.9c0,0-1.5-0.1-1.5,1.5c0,0.6,0,1.6,0,2.7h2.4h0.1h4.2v1.2h-4.2h-0.1H8.4
			c0,0.9,0,1.6,0,1.6h7.8c1,0,1.4-1.2,1.4-2.4c0-1.1-0.5-2.2-1.5-2.2H10.9z"/>
		<path fill="#FFFFFF" d="M29.1,54.4v-7h11.2c0,0,1.4,0.2,1.4,1.6v5.3h-2.4v-5.1h-2.8v5.1h-2.3v-5.1h-2.8v5.1L29.1,54.4L29.1,54.4z"
			/>
		<path fill="#FFFFFF" d="M51.4,47.5h-6.6c0,0-2.1-0.3-2.1,1.5v4.2c0,0,0.2,1.3,1.6,1.3h7v-1.9h-6.2v-3.4h6.2L51.4,47.5L51.4,47.5z"
			/>
		<path fill="#FFFFFF" d="M60.1,53h-5.3v-4H60L60.1,53L60.1,53z M62.3,52.9v-4.2c0,0-0.1-1.5-1.9-1.5h-5.7c0,0-2.2-0.3-2.2,1.7v4.3
			c0,0,0,1.4,2.2,1.4h5.9C60.6,54.6,62.3,54.9,62.3,52.9"/>
	</g>
	
		<polyline fill="none" stroke="#FFFFFF" stroke-width="0.5669" stroke-linecap="round" stroke-linejoin="round" stroke-miterlimit="10" points="
		35.5,13.2 35.5,15.2 33.5,16.6 37.2,18 33.5,19.6 37.1,20.6 35.2,22 35.2,24.2 	"/>
	
		<line fill="none" stroke="#FFFFFF" stroke-width="0.5669" stroke-linecap="round" stroke-linejoin="round" stroke-miterlimit="10" x1="62.5" y1="29.8" x2="62.5" y2="26.2"/>
	
		<line fill="none" stroke="#FFFFFF" stroke-width="0.5669" stroke-linecap="round" stroke-linejoin="round" stroke-miterlimit="10" x1="62.5" y1="10.2" x2="62.5" y2="6.6"/>
	
		<line fill="none" stroke="#FFFFFF" stroke-width="0.5669" stroke-linecap="round" stroke-linejoin="round" stroke-miterlimit="10" x1="60.7" y1="8.4" x2="64.3" y2="8.4"/>
	
		<line fill="none" stroke="#FFFFFF" stroke-width="0.5669" stroke-linecap="round" stroke-linejoin="round" stroke-miterlimit="10" x1="50.9" y1="29.8" x2="50.9" y2="26.2"/>
	
		<line fill="none" stroke="#FFFFFF" stroke-width="0.5669" stroke-linecap="round" stroke-linejoin="round" stroke-miterlimit="10" x1="50.9" y1="10.2" x2="50.9" y2="6.6"/>
	
		<line fill="none" stroke="#FFFFFF" stroke-width="0.5669" stroke-linecap="round" stroke-linejoin="round" stroke-miterlimit="10" x1="49.1" y1="8.4" x2="52.7" y2="8.4"/>
	<g>
		<path fill="#FFFFFF" d="M105.7,52.7h-4.3v-1.2h4.3V52.7z M108.1,48.9c0-1.5-1.5-1.5-1.5-1.5h-7.1V49h6.1v0.8h-5.2
			c-1,0-1.5,1-1.5,2.2s0.3,2.4,1.4,2.4h7.7C108.1,54.4,108.1,50.3,108.1,48.9"/>
		<path fill="#FFFFFF" d="M91.1,49.8V49h6.1v-1.6h-7.1c0,0-1.5-0.1-1.5,1.5c0,0.6,0,1.6,0,2.7H91h0.1h4.2v1.2h-4.2H91h-2.4
			c0,0.9,0,1.6,0,1.6h7.8c1,0,1.4-1.2,1.4-2.4c0-1.1-0.5-2.2-1.5-2.2H91.1z"/>
		<path fill="#FFFFFF" d="M109.3,54.4v-7h11.2c0,0,1.4,0.2,1.4,1.6v5.3h-2.4v-5.1h-2.8v5.1h-2.3v-5.1h-2.8v5.1L109.3,54.4
			L109.3,54.4z"/>
		<path fill="#FFFFFF" d="M131.6,47.5H125c0,0-2.1-0.3-2.1,1.5v4.2c0,0,0.2,1.3,1.6,1.3h7v-1.9h-6.2v-3.4h6.2L131.6,47.5L131.6,47.5
			z"/>
		<path fill="#FFFFFF" d="M140.3,53H135v-4h5.2L140.3,53L140.3,53z M142.5,52.9v-4.2c0,0-0.1-1.5-1.9-1.5h-5.7c0,0-2.2-0.3-2.2,1.7
			v4.3c0,0,0,1.4,2.2,1.4h5.9C140.8,54.6,142.5,54.9,142.5,52.9"/>
	</g>
	
		<polyline fill="none" stroke="#FFFFFF" stroke-width="0.5669" stroke-linecap="round" stroke-linejoin="round" stroke-miterlimit="10" points="
		115.7,24.2 115.7,22 113.8,20.6 117.4,19.6 113.7,18 117.4,16.6 115.4,15.2 115.4,13.2 	"/>
	
		<line fill="none" stroke="#FFFFFF" stroke-width="0.5669" stroke-linecap="round" stroke-linejoin="round" stroke-miterlimit="10" x1="87.9" y1="29.6" x2="87.9" y2="26"/>
	
		<line fill="none" stroke="#FFFFFF" stroke-width="0.5669" stroke-linecap="round" stroke-linejoin="round" stroke-miterlimit="10" x1="87.9" y1="10" x2="87.9" y2="6.4"/>
	
		<line fill="none" stroke="#FFFFFF" stroke-width="0.5669" stroke-linecap="round" stroke-linejoin="round" stroke-miterlimit="10" x1="86.1" y1="8.2" x2="89.7" y2="8.2"/>
	<g>
		<path fill="#FFFFFF" d="M224.4,12.4c0-0.1-0.1-0.1-0.2-0.2c-0.1-0.1-0.1-0.1-0.2-0.1s-0.2,0-0.3,0c-0.2,0-0.3,0-0.5,0.1
			c-0.2,0.1-0.2,0.2-0.3,0.3c-0.1,0.1-0.1,0.2-0.2,0.4c0,0.1-0.1,0.3-0.1,0.5c0,0.1,0,0.3,0.1,0.4c0,0.1,0.1,0.3,0.2,0.4
			c0.1,0.1,0.2,0.2,0.3,0.3c0.1,0.1,0.3,0.1,0.5,0.1c0.2,0,0.4-0.1,0.6-0.2c0.1-0.1,0.2-0.3,0.2-0.6h0.8c0,0.2-0.1,0.4-0.2,0.6
			c-0.1,0.2-0.2,0.3-0.3,0.5c-0.1,0.1-0.3,0.2-0.5,0.3c-0.2,0.1-0.4,0.1-0.6,0.1c-0.3,0-0.5,0-0.7-0.1c-0.2-0.1-0.4-0.2-0.6-0.4
			c-0.2-0.2-0.3-0.4-0.3-0.6c-0.1-0.2-0.1-0.5-0.1-0.7c0-0.3,0-0.5,0.1-0.7c0.1-0.2,0.2-0.4,0.3-0.6c0.1-0.2,0.3-0.3,0.6-0.4
			c0.2-0.1,0.5-0.1,0.7-0.1c0.2,0,0.4,0,0.6,0.1c0.2,0.1,0.3,0.1,0.5,0.2c0.1,0.1,0.3,0.2,0.3,0.4c0.1,0.2,0.1,0.3,0.2,0.5h-0.8
			C224.5,12.6,224.5,12.5,224.4,12.4z"/>
		<path fill="#FFFFFF" d="M227.6,11.5l1.3,3.6h-0.8l-0.3-0.8h-1.3l-0.3,0.8h-0.8l1.4-3.6H227.6z M227.7,13.7l-0.5-1.3l0,0l-0.5,1.3
			H227.7z"/>
		<path fill="#FFFFFF" d="M230.1,11.5v2.9h1.7v0.7h-2.5v-3.6H230.1z"/>
		<path fill="#FFFFFF" d="M233,11.5v3.6h-0.8v-3.6H233z"/>
	</g>
	<g>
		<path fill="#FFFFFF" d="M232,22.1c-0.2,0.1-0.3,0.1-0.5,0.1c-0.3,0-0.5,0-0.7-0.1c-0.2-0.1-0.4-0.2-0.6-0.4s-0.3-0.4-0.3-0.6
			c-0.1-0.2-0.1-0.5-0.1-0.7c0-0.3,0-0.5,0.1-0.7c0.1-0.2,0.2-0.4,0.3-0.6c0.1-0.2,0.3-0.3,0.6-0.4c0.2-0.1,0.5-0.1,0.7-0.1
			c0.2,0,0.4,0,0.5,0.1c0.2,0.1,0.3,0.1,0.5,0.2s0.3,0.2,0.3,0.4c0.1,0.2,0.1,0.3,0.2,0.5h-0.8c0-0.2-0.1-0.4-0.3-0.5
			c-0.1-0.1-0.3-0.2-0.5-0.2c-0.2,0-0.3,0-0.5,0.1c-0.2,0.1-0.2,0.2-0.3,0.3c-0.1,0.1-0.1,0.2-0.2,0.4c0,0.1-0.1,0.3-0.1,0.5
			c0,0.1,0,0.3,0.1,0.4c0,0.1,0.1,0.3,0.2,0.4s0.2,0.2,0.3,0.3c0.1,0.1,0.3,0.1,0.5,0.1c0.3,0,0.5-0.1,0.6-0.2
			c0.1-0.1,0.2-0.3,0.2-0.6h-0.8v-0.6h1.5v2h-0.5l-0.1-0.4C232.4,21.9,232.2,22.1,232,22.1z"/>
	</g>
	<g>
		<path fill="#FFFFFF" d="M200.6,52.9h-3.9v-1.1h3.9V52.9z M202.7,49.4c0-1.4-1.3-1.3-1.3-1.3H195v1.5h5.5v0.7h-4.7
			c-0.9,0-1.4,0.9-1.4,1.9c0,1,0.3,2.2,1.2,2.2h7.1C202.7,54.4,202.7,50.8,202.7,49.4"/>
		<path fill="#FFFFFF" d="M187.5,50.3v-0.7h5.5v-1.5h-6.4c0,0-1.3-0.1-1.3,1.3c0,0.5,0,1.5,0,2.4h2.2h0.1h3.8v1.1h-3.8h-0.1h-2.2
			c0,0.9,0,1.5,0,1.5h7.1c0.9,0,1.2-1.1,1.2-2.2c0-1-0.5-1.9-1.4-1.9C192.2,50.3,187.5,50.3,187.5,50.3z"/>
		<path fill="#FFFFFF" d="M203.8,54.4v-6.3h10.1c0,0,1.2,0.2,1.2,1.5v4.8h-2.2v-4.6h-2.5v4.6h-2.1v-4.6h-2.5v4.6H203.8z"/>
		<path fill="#FFFFFF" d="M223.9,48.1H218c0,0-1.9-0.2-1.9,1.4v3.8c0,0,0.2,1.2,1.5,1.2h6.3v-1.6h-5.6v-3.1h5.6L223.9,48.1
			L223.9,48.1z"/>
		<path fill="#FFFFFF" d="M231.7,53.2H227v-3.6h4.7V53.2z M233.7,53.1v-3.8c0,0-0.1-1.4-1.7-1.4h-5.1c0,0-1.9-0.2-1.9,1.6v3.9
			c0,0,0,1.2,2,1.2h5.3C232.2,54.6,233.7,54.9,233.7,53.1"/>
	</g>
	<g>
		<path fill="#FFFFFF" d="M240.7,86.9c-0.2,0.1-0.3,0.1-0.5,0.1c-0.3,0-0.5,0-0.7-0.1c-0.2-0.1-0.4-0.2-0.6-0.4
			c-0.2-0.2-0.3-0.4-0.3-0.6c-0.1-0.2-0.1-0.5-0.1-0.7c0-0.3,0-0.5,0.1-0.7c0.1-0.2,0.2-0.4,0.3-0.6c0.1-0.2,0.3-0.3,0.6-0.4
			c0.2-0.1,0.5-0.1,0.7-0.1c0.2,0,0.4,0,0.5,0.1c0.2,0.1,0.3,0.1,0.5,0.2c0.2,0.1,0.3,0.2,0.3,0.4c0.1,0.2,0.1,0.3,0.2,0.5h-0.8
			c0-0.2-0.1-0.4-0.3-0.5c-0.1-0.1-0.3-0.2-0.5-0.2c-0.2,0-0.3,0-0.4,0.1s-0.2,0.2-0.3,0.3c-0.1,0.1-0.1,0.2-0.2,0.4
			c0,0.1-0.1,0.3-0.1,0.5c0,0.1,0,0.3,0.1,0.4c0,0.1,0.1,0.3,0.2,0.4c0.1,0.1,0.2,0.2,0.3,0.3c0.1,0.1,0.3,0.1,0.4,0.1
			c0.3,0,0.5-0.1,0.6-0.2c0.1-0.1,0.2-0.3,0.2-0.6h-0.7V85h1.5v1.9h-0.5l-0.1-0.4C241,86.7,240.8,86.8,240.7,86.9z"/>
	</g>
	<g>
		<path fill="#FFFFFF" d="M225.9,84.2c-0.1,0-0.2,0.1-0.2,0.2c-0.1,0.1-0.1,0.2-0.1,0.3s0,0.2,0,0.3c0,0.1,0,0.1,0,0.2
			c0,0.1,0,0.2,0.1,0.2c0,0.1,0.1,0.1,0.1,0.2c0.1,0,0.1,0.1,0.2,0.1c0.1,0,0.2,0,0.2-0.1c0.1-0.1,0.1-0.1,0.2-0.2
			c0-0.1,0.1-0.2,0.1-0.3c0-0.1,0.1-0.3,0.1-0.4s0.1-0.3,0.1-0.4c0-0.1,0.1-0.2,0.2-0.3c0.1-0.1,0.2-0.2,0.3-0.2
			c0.1-0.1,0.3-0.1,0.4-0.1c0.2,0,0.3,0,0.5,0.1c0.2,0.1,0.2,0.2,0.3,0.3c0.1,0.1,0.2,0.3,0.2,0.4c0,0.2,0.1,0.3,0.1,0.5
			s0,0.4-0.1,0.5c0,0.2-0.1,0.3-0.2,0.5c-0.1,0.1-0.2,0.2-0.4,0.3c-0.1,0.1-0.3,0.1-0.5,0.1v-0.8c0.1,0,0.2,0,0.3-0.1
			c0.1,0,0.1-0.1,0.2-0.2c0-0.1,0.1-0.1,0.1-0.2c0-0.1,0-0.2,0-0.3s0-0.1,0-0.2c0-0.1,0-0.1-0.1-0.2c0-0.1-0.1-0.1-0.1-0.1
			s-0.1,0-0.2,0c-0.1,0-0.1,0-0.2,0c0,0-0.1,0.1-0.1,0.2c0,0.1-0.1,0.2-0.1,0.3c0,0.1-0.1,0.3-0.1,0.5c0,0.1,0,0.2-0.1,0.3
			c0,0.1-0.1,0.2-0.2,0.4c-0.1,0.1-0.2,0.2-0.3,0.3c-0.1,0.1-0.3,0.1-0.5,0.1c-0.2,0-0.3,0-0.5-0.1c-0.1-0.1-0.3-0.2-0.4-0.3
			c-0.1-0.1-0.2-0.3-0.2-0.5c-0.1-0.2-0.1-0.4-0.1-0.6s0-0.4,0.1-0.6c0-0.2,0.1-0.3,0.2-0.5c0.1-0.1,0.2-0.3,0.4-0.3
			c0.2-0.1,0.3-0.1,0.6-0.1v0.8C226.1,84.1,225.9,84.1,225.9,84.2z"/>
		<path fill="#FFFFFF" d="M227.6,89.1c0.1,0,0.1-0.1,0.2-0.2c0.1-0.1,0.1-0.1,0.1-0.2c0-0.1,0-0.2,0-0.3c0-0.2,0-0.3-0.1-0.4
			c-0.1-0.1-0.2-0.2-0.3-0.3s-0.2-0.1-0.4-0.2c-0.1,0-0.3-0.1-0.5-0.1c-0.1,0-0.3,0-0.4,0.1c-0.1,0-0.3,0.1-0.4,0.2
			c-0.1,0.1-0.2,0.2-0.3,0.3c-0.1,0.1-0.1,0.3-0.1,0.4c0,0.2,0.1,0.4,0.2,0.6c0.1,0.1,0.3,0.2,0.6,0.2V90c-0.2,0-0.4-0.1-0.6-0.2
			c-0.2-0.1-0.3-0.2-0.5-0.3c-0.1-0.1-0.2-0.3-0.3-0.5c-0.1-0.2-0.1-0.4-0.1-0.6c0-0.3,0-0.5,0.1-0.7c0.1-0.2,0.2-0.4,0.4-0.6
			c0.2-0.2,0.4-0.3,0.6-0.3c0.2-0.1,0.5-0.1,0.7-0.1c0.3,0,0.5,0,0.7,0.1c0.2,0.1,0.4,0.2,0.6,0.3c0.2,0.1,0.3,0.3,0.4,0.6
			c0.1,0.2,0.1,0.5,0.1,0.7s0,0.4-0.1,0.6s-0.1,0.3-0.2,0.5c-0.1,0.1-0.2,0.3-0.4,0.3c-0.2,0-0.3,0.1-0.5,0.2v-0.8
			C227.4,89.2,227.5,89.2,227.6,89.1z"/>
		<path fill="#FFFFFF" d="M228.6,91.3h-2.9V93H225v-2.5h3.6L228.6,91.3L228.6,91.3z"/>
	</g>
	<g>
		<path fill="#FFFFFF" d="M217.8,84c-0.1,0-0.2,0.1-0.2,0.2c-0.1,0.1-0.1,0.2-0.1,0.3c0,0.1,0,0.2,0,0.3c0,0.1,0,0.1,0,0.2
			c0,0.1,0,0.2,0.1,0.2c0,0.1,0.1,0.1,0.1,0.2c0.1,0,0.1,0.1,0.2,0.1c0.1,0,0.2,0,0.2-0.1c0.1-0.1,0.1-0.1,0.2-0.2
			c0-0.1,0.1-0.2,0.1-0.3c0-0.1,0.1-0.3,0.1-0.4c0-0.1,0.1-0.3,0.1-0.4c0-0.1,0.1-0.2,0.2-0.3c0.1-0.1,0.2-0.2,0.3-0.2
			c0.1-0.1,0.3-0.1,0.4-0.1c0.2,0,0.3,0,0.5,0.1c0.2,0.1,0.2,0.2,0.3,0.3s0.2,0.3,0.2,0.4c0,0.2,0.1,0.3,0.1,0.5
			c0,0.2,0,0.4-0.1,0.5c0,0.2-0.1,0.3-0.2,0.5c-0.1,0.1-0.2,0.2-0.4,0.3c-0.1,0.1-0.3,0.1-0.5,0.1v-0.8c0.1,0,0.2,0,0.3-0.1
			c0.1,0,0.1-0.1,0.2-0.2c0-0.1,0.1-0.1,0.1-0.2c0-0.1,0-0.2,0-0.3c0-0.1,0-0.1,0-0.2c0-0.1,0-0.1-0.1-0.2c0-0.1-0.1-0.1-0.1-0.1
			s-0.1,0-0.2,0c-0.1,0-0.1,0-0.2,0c0,0-0.1,0.1-0.1,0.2c0,0.1-0.1,0.2-0.1,0.3c0,0.1-0.1,0.3-0.1,0.5c0,0.1,0,0.2-0.1,0.3
			c0,0.1-0.1,0.2-0.2,0.4c-0.1,0.1-0.2,0.2-0.3,0.3c-0.1,0.1-0.3,0.1-0.5,0.1c-0.2,0-0.3,0-0.5-0.1c-0.1-0.1-0.3-0.2-0.4-0.3
			c-0.1-0.1-0.2-0.3-0.2-0.5c-0.1-0.2-0.1-0.4-0.1-0.6s0-0.4,0.1-0.6c0-0.2,0.1-0.3,0.2-0.5c0.1-0.1,0.2-0.3,0.4-0.3
			c0.2-0.1,0.3-0.1,0.6-0.1V84C218,84,217.9,84,217.8,84z"/>
		<path fill="#FFFFFF" d="M220.4,88.2c0,0.2,0,0.4-0.1,0.6s-0.2,0.4-0.3,0.5s-0.3,0.3-0.5,0.3c-0.2,0.1-0.5,0.1-0.8,0.1
			c-0.3,0-0.5,0-0.7-0.1c-0.2-0.1-0.4-0.2-0.6-0.3c-0.2-0.1-0.3-0.3-0.4-0.5c-0.1-0.2-0.1-0.4-0.1-0.7v-1.4h3.6L220.4,88.2
			L220.4,88.2z M217.6,88.2c0,0.1,0,0.2,0.1,0.3c0,0.1,0.1,0.2,0.2,0.3c0.1,0.1,0.2,0.2,0.3,0.2s0.3,0.1,0.5,0.1
			c0.2,0,0.3,0,0.5-0.1c0.1,0,0.3-0.1,0.4-0.2c0.1-0.1,0.2-0.2,0.2-0.3c0.1-0.1,0.1-0.3,0.1-0.5v-0.6h-2.2L217.6,88.2L217.6,88.2z"
			/>
		<path fill="#FFFFFF" d="M220.4,92.2l-3.6,1.3v-0.8l0.8-0.3v-1.3l-0.8-0.3V90l3.6,1.3V92.2z M218.3,92.2l1.3-0.5l0,0l-1.3-0.5V92.2
			z"/>
	</g>
</g>
</svg>
